<svg version="1.1" viewBox="0.0 0.0 225.249343832021 100.0" fill="none" stroke="none" stroke-linecap="square" stroke-miterlimit="10" xmlns:xlink="http://www.w3.org/1999/xlink" xmlns="http://www.w3.org/2000/svg"><clipPath id="p.0"><path d="m0 0l225.24934 0l0 100.0l-225.24934 0l0 -100.0z" clip-rule="nonzero"/></clipPath><g clip-path="url(#p.0)"><path fill="#000000" fill-opacity="0.0" d="m0 0l225.24934 0l0 100.0l-225.24934 0z" fill-rule="evenodd"/><path fill="#93c47d" d="m8.507427 76.97179l9.543306 -16.50394l9.543308 16.50394z" fill-rule="evenodd"/><path fill="#38761d" d="m28.540035 76.97179l9.543308 -16.50394l9.543304 16.50394z" fill-rule="evenodd"/><path fill="#38761d" d="m58.88752 60.217846l-9.543308 16.50394l-9.543308 -16.50394z" fill-rule="evenodd"/><path fill="#38761d" d="m51.072643 76.97179l9.543308 -16.50394l9.543304 16.50394z" fill-rule="evenodd"/><path fill="#6aa84f" d="m71.10525 76.97179l9.543312 -16.50394l9.543304 16.50394z" fill-rule="evenodd"/><path fill="#6aa84f" d="m61.33351 59.09135l9.543312 -16.503937l9.543304 16.503937z" fill-rule="evenodd"/><path fill="#38761d" d="m70.14839 41.087414l-9.543308 16.503937l-9.543308 -16.503937z" fill-rule="evenodd"/><path fill="#6aa84f" d="m47.61578 41.087414l-9.543304 16.503937l-9.543308 -16.503937z" fill-rule="evenodd"/><path fill="#38761d" d="m18.268297 59.09135l9.543306 -16.503937l9.543308 16.503937z" fill-rule="evenodd"/><path fill="#93c47d" d="m29.279167 39.79787l9.543308 -16.503939l9.543304 16.503939z" fill-rule="evenodd"/><path fill="#38761d" d="m50.311775 39.79787l9.543308 -16.503939l9.543308 16.503939z" fill-rule="evenodd"/><path fill="#6aa84f" d="m39.79004 21.917435l9.543304 -16.503937l9.543308 16.503937z" fill-rule="evenodd"/></g></svg>