<svg version="1.1" viewBox="0.0 0.0 102.44619422572178 100.9002624671916" fill="none" stroke="none" stroke-linecap="square" stroke-miterlimit="10" xmlns:xlink="http://www.w3.org/1999/xlink" xmlns="http://www.w3.org/2000/svg"><clipPath id="p.0"><path d="m0 0l102.4462 0l0 100.90026l-102.4462 0l0 -100.90026z" clip-rule="nonzero"/></clipPath><g clip-path="url(#p.0)"><path fill="#000000" fill-opacity="0.0" d="m0 0l102.4462 0l0 100.90026l-102.4462 0z" fill-rule="evenodd"/><path fill="#ffffff" d="m1.2230971 18.083l0 0c0 -8.938204 7.2458467 -16.18405 16.184052 -16.18405l67.6319 0l0 0c4.2922745 0 8.408752 1.7051005 11.443848 4.7401986c3.0351028 3.035098 4.740204 7.151575 4.740204 11.443851l0 64.73426c0 8.938202 -7.2458496 16.184052 -16.184052 16.184052l-67.6319 0c-8.938205 0 -16.184052 -7.2458496 -16.184052 -16.184052z" fill-rule="evenodd"/><path stroke="#b7b7b7" stroke-width="2.0" stroke-linejoin="round" stroke-linecap="butt" d="m1.2230971 18.083l0 0c0 -8.938204 7.2458467 -16.18405 16.184052 -16.18405l67.6319 0l0 0c4.2922745 0 8.408752 1.7051005 11.443848 4.7401986c3.0351028 3.035098 4.740204 7.151575 4.740204 11.443851l0 64.73426c0 8.938202 -7.2458496 16.184052 -16.184052 16.184052l-67.6319 0c-8.938205 0 -16.184052 -7.2458496 -16.184052 -16.184052z" fill-rule="evenodd"/><path fill="#6fa8dc" d="m21.445868 25.405169l0 0c0 -1.1629391 0.9427471 -2.1056862 2.1056862 -2.1056862l52.204002 0c0.5584564 0 1.0940475 0.22184753 1.488945 0.6167412c0.39488983 0.39489174 0.61673737 0.93048096 0.61673737 1.488945l0 8.422491c0 1.1629372 -0.942749 2.1056862 -2.1056824 2.1056862l-52.204002 0l0 0c-1.1629391 0 -2.1056862 -0.942749 -2.1056862 -2.1056862z" fill-rule="evenodd"/><path stroke="#0b66c8" stroke-width="1.0" stroke-linejoin="round" stroke-linecap="butt" d="m21.445868 25.405169l0 0c0 -1.1629391 0.9427471 -2.1056862 2.1056862 -2.1056862l52.204002 0c0.5584564 0 1.0940475 0.22184753 1.488945 0.6167412c0.39488983 0.39489174 0.61673737 0.93048096 0.61673737 1.488945l0 8.422491c0 1.1629372 -0.942749 2.1056862 -2.1056824 2.1056862l-52.204002 0l0 0c-1.1629391 0 -2.1056862 -0.942749 -2.1056862 -2.1056862z" fill-rule="evenodd"/><path fill="#cfe2f3" d="m69.4286 29.616413l0 0c0 -3.4887447 2.828186 -6.316931 6.3169327 -6.316931l0 0c1.675354 0 3.2820892 0.66553116 4.4667435 1.8501854c1.1846542 1.1846542 1.8501892 2.7913914 1.8501892 4.4667454l0 0c0 3.4887466 -2.828186 6.3169327 -6.3169327 6.3169327l0 0c-3.4887466 0 -6.3169327 -2.828186 -6.3169327 -6.3169327z" fill-rule="evenodd"/><path stroke="#0b66c8" stroke-width="1.0" stroke-linejoin="round" stroke-linecap="butt" d="m69.4286 29.616413l0 0c0 -3.4887447 2.828186 -6.316931 6.3169327 -6.316931l0 0c1.675354 0 3.2820892 0.66553116 4.4667435 1.8501854c1.1846542 1.1846542 1.8501892 2.7913914 1.8501892 4.4667454l0 0c0 3.4887466 -2.828186 6.3169327 -6.3169327 6.3169327l0 0c-3.4887466 0 -6.3169327 -2.828186 -6.3169327 -6.3169327z" fill-rule="evenodd"/><path fill="#0b66c8" d="m16.490465 29.616413l0 0c0 -3.4887447 2.828188 -6.316931 6.3169327 -6.316931l0 0c1.675354 0 3.2820911 0.66553116 4.4667454 1.8501854c1.1846542 1.1846542 1.8501873 2.7913914 1.8501873 4.4667454l0 0c0 3.4887466 -2.828188 6.3169327 -6.3169327 6.3169327l0 0c-3.4887447 0 -6.3169327 -2.828186 -6.3169327 -6.3169327z" fill-rule="evenodd"/><path stroke="#0b66c8" stroke-width="1.0" stroke-linejoin="round" stroke-linecap="butt" d="m16.490465 29.616413l0 0c0 -3.4887447 2.828188 -6.316931 6.3169327 -6.316931l0 0c1.675354 0 3.2820911 0.66553116 4.4667454 1.8501854c1.1846542 1.1846542 1.8501873 2.7913914 1.8501873 4.4667454l0 0c0 3.4887466 -2.828188 6.3169327 -6.3169327 6.3169327l0 0c-3.4887447 0 -6.3169327 -2.828186 -6.3169327 -6.3169327z" fill-rule="evenodd"/><path fill="#6fa8dc" d="m29.382912 46.236847l0 0c0 -1.162941 0.942749 -2.1056862 2.1056862 -2.1056862l52.204 0c0.55846405 0 1.0940552 0.22184753 1.488945 0.6167412c0.39488983 0.39488983 0.61673737 0.93048096 0.61673737 1.488945l0 8.422489c0 1.162941 -0.9427414 2.1056862 -2.1056824 2.1056862l-52.204 0l0 0c-1.1629372 0 -2.1056862 -0.9427452 -2.1056862 -2.1056862z" fill-rule="evenodd"/><path stroke="#0b66c8" stroke-width="1.0" stroke-linejoin="round" stroke-linecap="butt" d="m29.382912 46.236847l0 0c0 -1.162941 0.942749 -2.1056862 2.1056862 -2.1056862l52.204 0c0.55846405 0 1.0940552 0.22184753 1.488945 0.6167412c0.39488983 0.39488983 0.61673737 0.93048096 0.61673737 1.488945l0 8.422489c0 1.162941 -0.9427414 2.1056862 -2.1056824 2.1056862l-52.204 0l0 0c-1.1629372 0 -2.1056862 -0.9427452 -2.1056862 -2.1056862z" fill-rule="evenodd"/><path fill="#cfe2f3" d="m77.36564 50.448093l0 0c0 -3.4887466 2.828186 -6.3169327 6.3169327 -6.3169327l0 0c1.675354 0 3.2820892 0.66553116 4.4667435 1.8501854c1.1846619 1.1846542 1.8501892 2.7913895 1.8501892 4.4667473l0 0c0 3.4887428 -2.828186 6.316929 -6.3169327 6.316929l0 0c-3.4887466 0 -6.3169327 -2.828186 -6.3169327 -6.316929z" fill-rule="evenodd"/><path stroke="#0b66c8" stroke-width="1.0" stroke-linejoin="round" stroke-linecap="butt" d="m77.36564 50.448093l0 0c0 -3.4887466 2.828186 -6.3169327 6.3169327 -6.3169327l0 0c1.675354 0 3.2820892 0.66553116 4.4667435 1.8501854c1.1846619 1.1846542 1.8501892 2.7913895 1.8501892 4.4667473l0 0c0 3.4887428 -2.828186 6.316929 -6.3169327 6.316929l0 0c-3.4887466 0 -6.3169327 -2.828186 -6.3169327 -6.316929z" fill-rule="evenodd"/><path fill="#0b66c8" d="m24.427511 50.448093l0 0c0 -3.4887466 2.828186 -6.3169327 6.316931 -6.3169327l0 0c1.675354 0 3.282093 0.66553116 4.4667473 1.8501854c1.1846542 1.1846542 1.8501854 2.7913895 1.8501854 4.4667473l0 0c0 3.4887428 -2.828186 6.316929 -6.3169327 6.316929l0 0c-3.4887447 0 -6.316931 -2.828186 -6.316931 -6.316929z" fill-rule="evenodd"/><path stroke="#0b66c8" stroke-width="1.0" stroke-linejoin="round" stroke-linecap="butt" d="m24.427511 50.448093l0 0c0 -3.4887466 2.828186 -6.3169327 6.316931 -6.3169327l0 0c1.675354 0 3.282093 0.66553116 4.4667473 1.8501854c1.1846542 1.1846542 1.8501854 2.7913895 1.8501854 4.4667473l0 0c0 3.4887428 -2.828186 6.316929 -6.3169327 6.316929l0 0c-3.4887447 0 -6.316931 -2.828186 -6.316931 -6.316929z" fill-rule="evenodd"/><path fill="#6fa8dc" d="m20.144714 67.06853l0 0c0 -1.162941 0.942749 -2.10569 2.1056862 -2.10569l52.204 0c0.55846405 0 1.0940552 0.22184753 1.488945 0.616745c0.39488983 0.39488983 0.61673737 0.93048096 0.61673737 1.488945l0 8.422485c0 1.162941 -0.9427414 2.10569 -2.1056824 2.10569l-52.204 0l0 0c-1.1629372 0 -2.1056862 -0.942749 -2.1056862 -2.10569z" fill-rule="evenodd"/><path stroke="#0b66c8" stroke-width="1.0" stroke-linejoin="round" stroke-linecap="butt" d="m20.144714 67.06853l0 0c0 -1.162941 0.942749 -2.10569 2.1056862 -2.10569l52.204 0c0.55846405 0 1.0940552 0.22184753 1.488945 0.616745c0.39488983 0.39488983 0.61673737 0.93048096 0.61673737 1.488945l0 8.422485c0 1.162941 -0.9427414 2.10569 -2.1056824 2.10569l-52.204 0l0 0c-1.1629372 0 -2.1056862 -0.942749 -2.1056862 -2.10569z" fill-rule="evenodd"/><path fill="#cfe2f3" d="m68.12744 71.27977l0 0c0 -3.4887466 2.828186 -6.3169327 6.3169327 -6.3169327l0 0c1.675354 0 3.2820892 0.665535 4.466751 1.8501892c1.1846542 1.1846542 1.8501816 2.7913895 1.8501816 4.4667435l0 0c0 3.4887466 -2.828186 6.3169327 -6.3169327 6.3169327l0 0c-3.4887466 0 -6.3169327 -2.828186 -6.3169327 -6.3169327z" fill-rule="evenodd"/><path stroke="#0b66c8" stroke-width="1.0" stroke-linejoin="round" stroke-linecap="butt" d="m68.12744 71.27977l0 0c0 -3.4887466 2.828186 -6.3169327 6.3169327 -6.3169327l0 0c1.675354 0 3.2820892 0.665535 4.466751 1.8501892c1.1846542 1.1846542 1.8501816 2.7913895 1.8501816 4.4667435l0 0c0 3.4887466 -2.828186 6.3169327 -6.3169327 6.3169327l0 0c-3.4887466 0 -6.3169327 -2.828186 -6.3169327 -6.3169327z" fill-rule="evenodd"/><path fill="#0b66c8" d="m15.189313 71.27977l0 0c0 -3.4887466 2.828187 -6.3169327 6.3169317 -6.3169327l0 0c1.6753559 0 3.2820911 0.665535 4.4667473 1.8501892c1.1846542 1.1846542 1.8501854 2.7913895 1.8501854 4.4667435l0 0c0 3.4887466 -2.828186 6.3169327 -6.3169327 6.3169327l0 0c-3.4887447 0 -6.3169317 -2.828186 -6.3169317 -6.3169327z" fill-rule="evenodd"/><path stroke="#0b66c8" stroke-width="1.0" stroke-linejoin="round" stroke-linecap="butt" d="m15.189313 71.27977l0 0c0 -3.4887466 2.828187 -6.3169327 6.3169317 -6.3169327l0 0c1.6753559 0 3.2820911 0.665535 4.4667473 1.8501892c1.1846542 1.1846542 1.8501854 2.7913895 1.8501854 4.4667435l0 0c0 3.4887466 -2.828186 6.3169327 -6.3169327 6.3169327l0 0c-3.4887447 0 -6.3169317 -2.828186 -6.3169317 -6.3169327z" fill-rule="evenodd"/></g></svg>